<svg width="51" height="23" viewBox="0 0 51 23" fill="none" xmlns="http://www.w3.org/2000/svg">
<path d="M1.92919 1.92917H7.6337C7.70462 1.92946 7.77255 1.95777 7.8227 2.00792C7.87285 2.05806 7.90115 2.12599 7.90145 2.19691V2.26539C7.90069 2.66277 7.74605 3.0444 7.46998 3.33022C7.1939 3.61603 6.81784 3.78379 6.42073 3.79831H2.83177V5.73199H6.36797C6.39491 5.73199 6.4241 5.73199 6.44936 5.73199H7.34295C7.69002 5.73229 8.02278 5.87029 8.26819 6.1157C8.51361 6.36112 8.65161 6.69388 8.65191 7.04095V7.38896C8.65176 7.45992 8.6235 7.52793 8.57332 7.57811C8.52314 7.62829 8.45513 7.65655 8.38417 7.65669H1.92919V1.92917ZM10.58 7.38615V7.03814C10.5801 6.5049 10.4485 5.97989 10.1967 5.50983C9.94492 5.03977 9.58085 4.63924 9.13687 4.34389C9.58767 3.7454 9.83121 3.01634 9.83064 2.26707V2.1986C9.82975 1.61615 9.59802 1.05781 9.18622 0.645912C8.77443 0.23401 8.21615 0.0021379 7.6337 0.00109877H1.13383C0.985007 0.00102504 0.837628 0.0302652 0.700105 0.0871492C0.562582 0.144033 0.43761 0.227447 0.332324 0.332629C0.227039 0.43781 0.143499 0.562699 0.0864786 0.700165C0.0294585 0.837632 7.3693e-05 0.984982 0 1.1338V9.58308H8.38192C8.96459 9.58279 9.52334 9.35126 9.93546 8.93935C10.3476 8.52744 10.5794 7.96882 10.58 7.38615Z" fill="white"/>
<path d="M17.0366 9.58367H21.4922C21.7929 9.58352 22.0812 9.46402 22.2938 9.25141C22.5064 9.03881 22.6259 8.7505 22.6261 8.44984V0H20.6969V7.65504H17.0366C16.1865 7.65385 15.3716 7.31562 14.7704 6.7145C14.1693 6.11338 13.8311 5.29843 13.8299 4.44832V0H11.9001V4.44551C11.9018 5.80733 12.4436 7.11289 13.4066 8.07574C14.3697 9.03859 15.6754 9.58009 17.0372 9.58142" fill="white"/>
<path d="M26.8013 0H24.8716V9.58367H26.8013V0Z" fill="white"/>
<path d="M29.0211 0V9.58367H38.7485V7.65391H30.9503V0H29.0211Z" fill="white"/>
<path d="M48.895 5.42498C48.8942 6.0159 48.6592 6.58241 48.2413 7.00025C47.8235 7.4181 47.257 7.65317 46.6661 7.65391H42.0634V1.92863H46.6661C47.257 1.92938 47.8235 2.16445 48.2413 2.58229C48.6592 3.00014 48.8942 3.56664 48.895 4.15756V5.42498ZM46.6666 0H41.2613C40.9621 0.000297199 40.6753 0.119259 40.4638 0.330776C40.2523 0.542294 40.1334 0.829087 40.1331 1.12822V8.45658C40.1334 8.75571 40.2523 9.0425 40.4638 9.25402C40.6753 9.46553 40.9621 9.5845 41.2613 9.58479H46.6666C47.7692 9.58346 48.8262 9.14488 49.6058 8.36527C50.3854 7.58565 50.824 6.52865 50.8253 5.42611V4.15869C50.8241 3.0561 50.3856 1.99901 49.6059 1.21936C48.8263 0.439717 47.7692 0.00118861 46.6666 0Z" fill="white"/>
<path d="M39.9543 12.8913V14.8211H44.4251V22.8836H46.3549V14.8211H50.8245V12.8913H39.9543Z" fill="white"/>
<path d="M29.8841 14.821H36.7258C36.7968 14.8212 36.8648 14.8494 36.915 14.8996C36.9652 14.9498 36.9934 15.0178 36.9936 15.0888V16.2316C36.9931 16.6386 36.8313 17.0288 36.5435 17.3166C36.2557 17.6044 35.8654 17.7663 35.4584 17.7667H30.7873V19.6965H32.2113L36.2762 22.8864H39.3999L35.3372 19.6965H35.459C36.3771 19.6947 37.2571 19.329 37.9061 18.6795C38.5551 18.03 38.9201 17.1497 38.9211 16.2316V15.0904C38.9203 14.5078 38.6885 13.9493 38.2764 13.5374C37.8643 13.1255 37.3057 12.8939 36.723 12.8935H29.0871C28.7864 12.8936 28.4981 13.0132 28.2855 13.2258C28.0729 13.4384 27.9534 13.7267 27.9532 14.0273V22.8864H29.8841V14.821Z" fill="white"/>
<path d="M23.8811 18.5661H16.8087V18.0278C16.8096 17.1776 17.1477 16.3624 17.7489 15.7613C18.3501 15.1601 19.1652 14.8219 20.0154 14.8211H23.8805V18.5661H23.8811ZM14.8778 18.0278V22.8836H16.8076V20.4958H23.88V22.8836H25.8092V14.0251C25.809 13.7245 25.6895 13.4362 25.4769 13.2236C25.2643 13.011 24.976 12.8914 24.6753 12.8913H20.0165C18.6546 12.8928 17.3489 13.4344 16.3857 14.3973C15.4226 15.3602 14.8807 16.6658 14.8789 18.0278" fill="white"/>
<path d="M1.92917 17.0667L5.5608 22.5674C5.64912 22.6986 5.76771 22.8066 5.90656 22.8823C6.11853 22.998 6.3662 23.0298 6.60052 22.9715C6.83484 22.9132 7.0387 22.7689 7.17173 22.5674L10.8056 17.0667V22.8834H12.7348V13.8555C12.7351 13.648 12.6685 13.446 12.5448 13.2795C12.4212 13.1129 12.2471 12.9907 12.0484 12.931C11.8498 12.8713 11.6371 12.8773 11.4422 12.9481C11.2472 13.0188 11.0802 13.1507 10.9661 13.3239L6.36739 20.2841L1.76976 13.3239C1.65567 13.1507 1.48873 13.0188 1.29374 12.9481C1.09875 12.8773 0.886128 12.8713 0.687465 12.931C0.488802 12.9907 0.314704 13.1129 0.191048 13.2795C0.067391 13.446 0.000775176 13.648 0.00109981 13.8555V22.8834H1.93086V17.0667H1.92917Z" fill="white"/>
</svg>
