<svg height="115.346" width="254.883" xmlns="http://www.w3.org/2000/svg"><path d="M9.674 9.673h28.6a1.348 1.348 0 011.342 1.342v.343a7.707 7.707 0 01-7.425 7.688l-18 .005v9.679h17.726c.134 0 .273 0 .407-.005H36.8a6.571 6.571 0 016.563 6.563v1.747a1.345 1.345 0 01-1.344 1.344H9.674zM53.058 37.04v-1.745a16.223 16.223 0 00-7.238-13.507A17.288 17.288 0 0049.3 11.37v-.343A11.038 11.038 0 0038.277.005H5.685A5.684 5.684 0 000 5.685v42.373h42.035A11.03 11.03 0 0053.058 37.04m32.384 11.023h22.345a5.689 5.689 0 005.685-5.685V0h-9.671v38.39H85.442A16.1 16.1 0 0169.36 22.308V0h-9.679v22.308a25.788 25.788 0 0025.761 25.755M124.73 0h9.679v48.063h-9.679zm20.815 0v48.063h48.77v-9.679h-39.1V0zm99.664 27.206a11.193 11.193 0 01-11.178 11.178h-23.078V9.674h23.079a11.193 11.193 0 0111.177 11.178zM234.027 0h-27.1a5.664 5.664 0 00-5.659 5.659V42.41a5.664 5.664 0 005.659 5.659h27.1a20.883 20.883 0 0020.857-20.857v-6.355A20.879 20.879 0 00234.027 0m-33.658 64.648v9.679h22.42v40.435h9.679V74.327h22.415v-9.679zm-50.509 9.68h34.31a1.345 1.345 0 011.344 1.344v5.723a7.706 7.706 0 01-7.7 7.7h-23.425v9.679h7.137l20.386 16h15.664l-20.375-16h.61a17.4 17.4 0 0017.377-17.377v-5.723a11.033 11.033 0 00-11.023-11.017h-38.3a5.689 5.689 0 00-5.685 5.685v44.428h9.679V74.33zm-30.098 18.78H84.29v-2.7a16.1 16.1 0 0116.082-16.082h19.385v18.782zm-45.151-2.7v24.353h9.679v-11.975h35.472v11.976h9.674V70.333a5.689 5.689 0 00-5.685-5.685h-23.374a25.794 25.794 0 00-25.766 25.76M9.674 85.591l18.212 27.586a4.945 4.945 0 001.735 1.579 4.831 4.831 0 006.344-1.579l18.223-27.586v29.171h9.674V69.487a4.834 4.834 0 00-8.871-2.666l-23.063 34.91-23.057-34.91A4.834 4.834 0 000 69.487v45.274h9.679v-29.17z" fill="#d31a2b"/></svg>