<svg width="15" height="16" viewBox="0 0 15 16" fill="none" xmlns="http://www.w3.org/2000/svg">
<path d="M8.5 1.03226C8.5 0.46129 8.05313 0 7.5 0C6.94688 0 6.5 0.46129 6.5 1.03226V8.25806C6.5 8.82903 6.94688 9.29032 7.5 9.29032C8.05313 9.29032 8.5 8.82903 8.5 8.25806V1.03226ZM3.98438 3.89032C4.40938 3.52581 4.46563 2.87419 4.1125 2.43548C3.75938 1.99677 3.12812 1.93871 2.70312 2.30323C1.05313 3.72258 0 5.86452 0 8.25806C0 12.5323 3.35938 16 7.5 16C11.6406 16 15 12.5323 15 8.25806C15 5.86452 13.9437 3.72258 12.2937 2.30323C11.8687 1.93871 11.2375 2 10.8844 2.43548C10.5312 2.87097 10.5906 3.52581 11.0125 3.89032C12.2281 4.93226 12.9969 6.50323 12.9969 8.25806C12.9969 11.3935 10.5344 13.9355 7.49687 13.9355C4.45937 13.9355 1.99688 11.3935 1.99688 8.25806C1.99688 6.50323 2.76875 4.93226 3.98125 3.89032H3.98438Z" fill="white"/>
</svg>
